<?xml version="1.0" standalone="no"?>
<!DOCTYPE svg PUBLIC "-//W3C//DTD SVG 20010904//EN"
 "http://www.w3.org/TR/2001/REC-SVG-20010904/DTD/svg10.dtd">
<svg version="1.0" xmlns="http://www.w3.org/2000/svg"
 width="1297.000000pt" height="2048.000000pt" viewBox="0 0 1297.000000 2048.000000"
 preserveAspectRatio="xMidYMid meet">

<g transform="translate(0.000000,2048.000000) scale(0.100000,-0.100000)"
fill="#000000" stroke="none">
<path d="M40 19340 l0 -1140 2570 0 2571 0 -4 -4187 c-2 -3079 -7 -4229 -15
-4343 -23 -301 -33 -407 -53 -565 -142 -1109 -567 -1714 -1674 -2387 -513
-311 -1333 -719 -2570 -1276 -110 -50 -201 -95 -203 -101 -8 -24 201 -483 339
-743 158 -297 280 -501 470 -783 185 -275 467 -645 492 -645 14 0 356 154 837
378 377 175 1208 589 1480 738 1589 867 2434 1609 2925 2569 351 687 523 1480
575 2660 6 136 10 2261 10 5593 l0 5372 -3875 0 -3875 0 0 -1140z"/>
<path d="M10290 15183 c-1 -5021 -5 -5936 -30 -6338 -78 -1259 -301 -2228
-707 -3065 -561 -1158 -1448 -2039 -2973 -2952 -549 -329 -1006 -574 -1983
-1064 l-668 -334 98 -63 c377 -243 809 -499 1253 -742 199 -108 987 -505 1116
-562 l72 -31 213 102 c1406 674 2396 1279 3234 1975 386 322 795 729 1100
1096 1153 1385 1753 3057 1865 5190 6 122 10 2333 10 6138 l0 5947 -1300 0
-1300 0 0 -5297z"/>
</g>
</svg>
